<svg id="Grupo_1171" data-name="Grupo 1171" xmlns="http://www.w3.org/2000/svg" xmlns:xlink="http://www.w3.org/1999/xlink" width="137" height="135.848" viewBox="0 0 137 135.848">
  <defs>
    <clipPath id="clip-path">
      <rect id="Rectángulo_545" data-name="Rectángulo 545" width="137" height="135.848" fill="none"/>
    </clipPath>
  </defs>
  <g id="Grupo_1170" data-name="Grupo 1170" clip-path="url(#clip-path)">
    <path id="Trazado_1095" data-name="Trazado 1095" d="M94.327,203.341a53.965,53.965,0,0,1-26.2-6.779,2.165,2.165,0,0,1,2.106-3.784,49.626,49.626,0,0,0,24.089,6.233,49.1,49.1,0,0,0,22.019-5.143,2.165,2.165,0,1,1,1.924,3.878,53.386,53.386,0,0,1-23.943,5.594" transform="translate(-26.821 -77.04)" fill="#231f20"/>
    <path id="Trazado_1096" data-name="Trazado 1096" d="M132.343,192.239l9.982,2.861-2.867,9.981,5.452-3.021,2.863-9.978-9.978-2.863Z" transform="translate(-52.964 -75.725)" fill="#231f20"/>
    <path id="Trazado_1097" data-name="Trazado 1097" d="M181.313,92.186a2.164,2.164,0,0,1-2.165-2.165,49.561,49.561,0,0,0-23.1-41.934,2.165,2.165,0,0,1,2.316-3.658,53.89,53.89,0,0,1,25.114,45.592,2.165,2.165,0,0,1-2.165,2.165" transform="translate(-62.047 -17.646)" fill="#231f20"/>
    <path id="Trazado_1098" data-name="Trazado 1098" d="M159.616,54.917,156.884,44.9,166.9,42.173l-5.411-3.094-10.015,2.729L154.2,51.823Z" transform="translate(-60.621 -15.639)" fill="#231f20"/>
    <path id="Trazado_1099" data-name="Trazado 1099" d="M25.2,85.61c-.068,0-.137,0-.207-.01a2.165,2.165,0,0,1-1.951-2.36A53.951,53.951,0,0,1,52.4,40.25a2.165,2.165,0,0,1,1.956,3.863,49.624,49.624,0,0,0-27,39.536A2.165,2.165,0,0,1,25.2,85.61" transform="translate(-9.216 -16.015)" fill="#231f20"/>
    <path id="Trazado_1100" data-name="Trazado 1100" d="M29.626,98.189l-7.7,6.963-6.958-7.706-.316,6.224,6.959,7.7,7.7-6.959Z" transform="translate(-5.862 -38.998)" fill="#231f20"/>
    <path id="Trazado_1101" data-name="Trazado 1101" d="M117.618,18.822A15.213,15.213,0,1,1,102.4,3.609a15.213,15.213,0,0,1,15.213,15.213" transform="translate(-34.894 -1.444)" fill="#97e4ff"/>
    <path id="Trazado_1102" data-name="Trazado 1102" d="M100.96,34.757a17.378,17.378,0,1,1,17.378-17.379A17.4,17.4,0,0,1,100.96,34.757m0-30.427a13.048,13.048,0,1,0,13.049,13.048A13.063,13.063,0,0,0,100.96,4.33" transform="translate(-33.45)" fill="#231f20"/>
    <path id="Trazado_1103" data-name="Trazado 1103" d="M117.737,74.792H86.6V70.207a15.569,15.569,0,1,1,31.138,0Z" transform="translate(-34.657 -21.866)" fill="#97e4ff"/>
    <path id="Trazado_1104" data-name="Trazado 1104" d="M116.291,75.512H85.153a2.165,2.165,0,0,1-2.165-2.165V68.762a17.734,17.734,0,0,1,35.468,0v4.585a2.165,2.165,0,0,1-2.165,2.165m-28.973-4.33h26.809v-2.42a13.4,13.4,0,1,0-26.809,0Z" transform="translate(-33.212 -20.421)" fill="#231f20"/>
    <path id="Trazado_1105" data-name="Trazado 1105" d="M203.906,153.463a15.213,15.213,0,1,1-15.213-15.213,15.213,15.213,0,0,1,15.213,15.213" transform="translate(-69.427 -55.328)" fill="#97e4ff"/>
    <path id="Trazado_1106" data-name="Trazado 1106" d="M187.248,169.4a17.378,17.378,0,1,1,17.378-17.379A17.4,17.4,0,0,1,187.248,169.4m0-30.427A13.048,13.048,0,1,0,200.3,152.019a13.063,13.063,0,0,0-13.049-13.048" transform="translate(-67.982 -53.884)" fill="#231f20"/>
    <path id="Trazado_1107" data-name="Trazado 1107" d="M204.024,209.433H172.885v-4.585a15.569,15.569,0,0,1,31.139,0Z" transform="translate(-69.189 -75.75)" fill="#97e4ff"/>
    <path id="Trazado_1108" data-name="Trazado 1108" d="M202.579,210.153H171.441a2.165,2.165,0,0,1-2.165-2.165V203.4a17.734,17.734,0,0,1,35.469,0v4.584a2.165,2.165,0,0,1-2.165,2.165m-28.973-4.33h26.809V203.4a13.4,13.4,0,0,0-26.809,0Z" transform="translate(-67.744 -74.305)" fill="#231f20"/>
    <path id="Trazado_1109" data-name="Trazado 1109" d="M34.63,153.463A15.213,15.213,0,1,1,19.416,138.25,15.213,15.213,0,0,1,34.63,153.463" transform="translate(-1.682 -55.328)" fill="#97e4ff"/>
    <path id="Trazado_1110" data-name="Trazado 1110" d="M17.972,169.4A17.378,17.378,0,1,1,35.35,152.019,17.4,17.4,0,0,1,17.972,169.4m0-30.427A13.048,13.048,0,1,0,31.02,152.019a13.063,13.063,0,0,0-13.048-13.048" transform="translate(-0.238 -53.884)" fill="#231f20"/>
    <path id="Trazado_1111" data-name="Trazado 1111" d="M34.748,209.433H3.609v-4.585a15.569,15.569,0,0,1,31.139,0Z" transform="translate(-1.444 -75.75)" fill="#97e4ff"/>
    <path id="Trazado_1112" data-name="Trazado 1112" d="M33.3,210.153H2.165A2.165,2.165,0,0,1,0,207.988V203.4a17.734,17.734,0,1,1,35.468,0v4.584a2.165,2.165,0,0,1-2.165,2.165M4.33,205.823H31.139V203.4a13.4,13.4,0,0,0-26.809,0Z" transform="translate(0 -74.305)" fill="#231f20"/>
  </g>
</svg>
