<svg id="Grupo_1173" data-name="Grupo 1173" xmlns="http://www.w3.org/2000/svg" xmlns:xlink="http://www.w3.org/1999/xlink" width="120.37" height="80.304" viewBox="0 0 120.37 80.304">
  <defs>
    <clipPath id="clip-path">
      <rect id="Rectángulo_549" data-name="Rectángulo 549" width="120.37" height="80.304" fill="none"/>
    </clipPath>
  </defs>
  <g id="Grupo_1172" data-name="Grupo 1172" clip-path="url(#clip-path)">
    <path id="Trazado_1113" data-name="Trazado 1113" d="M110.715,78.536H15.4a8.772,8.772,0,0,1-8.746-8.746V12.074A8.772,8.772,0,0,1,15.4,3.328h95.313a8.771,8.771,0,0,1,8.746,8.746V69.791a8.771,8.771,0,0,1-8.746,8.746" transform="translate(-2.829 -1.415)" fill="#fff"/>
    <path id="Trazado_1114" data-name="Trazado 1114" d="M105.172,80.3H15.2A15.215,15.215,0,0,1,0,65.106V15.2A15.215,15.215,0,0,1,15.2,0h89.974a15.215,15.215,0,0,1,15.2,15.2V65.106a15.215,15.215,0,0,1-15.2,15.2M15.2,3.827A11.384,11.384,0,0,0,3.827,15.2V65.106A11.384,11.384,0,0,0,15.2,76.477h89.974a11.384,11.384,0,0,0,11.371-11.371V15.2A11.384,11.384,0,0,0,105.172,3.827Z" fill="#231f20"/>
    <rect id="Rectángulo_546" data-name="Rectángulo 546" width="81.441" height="76.477" transform="translate(15.198 1.913)" fill="#97e4ff"/>
    <path id="Trazado_1115" data-name="Trazado 1115" d="M106.461,80.3H25.019a1.913,1.913,0,0,1-1.913-1.913V1.913A1.913,1.913,0,0,1,25.019,0h81.441a1.914,1.914,0,0,1,1.914,1.913V78.391a1.914,1.914,0,0,1-1.914,1.913M26.933,76.477h77.615V3.827H26.933Z" transform="translate(-9.822)" fill="#231f20"/>
    <path id="Trazado_1116" data-name="Trazado 1116" d="M184.646,72.1a1.913,1.913,0,0,1-1.913-1.913V56.627a1.913,1.913,0,0,1,3.827,0V70.191a1.913,1.913,0,0,1-1.913,1.913" transform="translate(-77.673 -23.257)" fill="#231f20"/>
    <rect id="Rectángulo_547" data-name="Rectángulo 547" width="11.639" height="34.199" transform="translate(37.494 22.835) rotate(-45)" fill="#fff"/>
    <path id="Trazado_1117" data-name="Trazado 1117" d="M87.982,58.314a1.914,1.914,0,0,1-1.353-.561L62.447,33.571a1.915,1.915,0,0,1,0-2.706l8.23-8.23a1.914,1.914,0,0,1,2.706,0L97.565,46.817a1.913,1.913,0,0,1,0,2.706l-8.23,8.23a1.914,1.914,0,0,1-1.353.561m-21.476-26.1L87.982,53.694l5.524-5.524L72.031,26.694Z" transform="translate(-26.306 -9.383)" fill="#231f20"/>
    <path id="Trazado_1118" data-name="Trazado 1118" d="M107.275,75.693l13.545,5.315-5.315-13.545Z" transform="translate(-45.599 -28.676)" fill="#fff"/>
    <path id="Trazado_1119" data-name="Trazado 1119" d="M119.405,81.507a1.911,1.911,0,0,1-.7-.133L105.163,76.06a1.913,1.913,0,0,1-.654-3.135l8.23-8.23a1.914,1.914,0,0,1,3.135.654l5.314,13.545a1.913,1.913,0,0,1-1.782,2.613m-10.124-7.942,6.742,2.646-2.645-6.743Z" transform="translate(-44.185 -27.262)" fill="#231f20"/>
    <rect id="Rectángulo_548" data-name="Rectángulo 548" width="11.639" height="10.699" transform="translate(37.494 22.835) rotate(-45)" fill="#fff"/>
    <path id="Trazado_1120" data-name="Trazado 1120" d="M71.365,41.7a1.907,1.907,0,0,1-1.353-.561l-7.566-7.565a1.915,1.915,0,0,1,0-2.706l8.23-8.23a1.914,1.914,0,0,1,2.706,0L80.948,30.2a1.913,1.913,0,0,1,0,2.706l-8.23,8.23a1.908,1.908,0,0,1-1.353.561m-4.859-9.478,4.859,4.859,5.524-5.523-4.859-4.859Z" transform="translate(-26.306 -9.383)" fill="#231f20"/>
    <path id="Trazado_1121" data-name="Trazado 1121" d="M109.743,106.267H83.128a1.913,1.913,0,1,1,0-3.827h26.614a1.913,1.913,0,1,1,0,3.827" transform="translate(-34.522 -43.544)" fill="#231f20"/>
  </g>
</svg>
