<svg id="Grupo_1167" data-name="Grupo 1167" xmlns="http://www.w3.org/2000/svg" xmlns:xlink="http://www.w3.org/1999/xlink" width="141" height="117.889" viewBox="0 0 141 117.889">
  <defs>
    <clipPath id="clip-path">
      <rect id="Rect치ngulo_543" data-name="Rect치ngulo 543" width="141" height="117.889" fill="none"/>
    </clipPath>
  </defs>
  <g id="Grupo_1166" data-name="Grupo 1166" clip-path="url(#clip-path)">
    <path id="Trazado_1036" data-name="Trazado 1036" d="M233.359,196.376a2.08,2.08,0,1,1,1.464-.608,2.085,2.085,0,0,1-1.464.608" transform="translate(-94.434 -78.487)" fill="#231f20"/>
    <path id="Trazado_1037" data-name="Trazado 1037" d="M134.494,194.3a2.075,2.075,0,1,1,2.075,2.074,2.074,2.074,0,0,1-2.075-2.074m-7.6,0a2.075,2.075,0,1,1,2.074,2.074,2.075,2.075,0,0,1-2.074-2.074m-7.6,0a2.075,2.075,0,1,1,2.075,2.074,2.075,2.075,0,0,1-2.075-2.074m-7.6,0a2.074,2.074,0,1,1,2.074,2.074,2.075,2.075,0,0,1-2.074-2.074m-7.6,0a2.076,2.076,0,1,1,2.075,2.074,2.075,2.075,0,0,1-2.075-2.074m-7.6,0a2.074,2.074,0,1,1,2.074,2.074,2.074,2.074,0,0,1-2.074-2.074m-7.6,0a2.074,2.074,0,1,1,2.074,2.074,2.075,2.075,0,0,1-2.074-2.074m-7.6,0a2.075,2.075,0,1,1,2.074,2.074,2.075,2.075,0,0,1-2.074-2.074m-7.6,0a2.074,2.074,0,1,1,2.075,2.074,2.075,2.075,0,0,1-2.075-2.074m-7.6,0a2.074,2.074,0,1,1,2.074,2.074,2.075,2.075,0,0,1-2.074-2.074m-7.6,0a2.074,2.074,0,1,1,2.074,2.074,2.074,2.074,0,0,1-2.074-2.074m-7.6,0a2.075,2.075,0,1,1,2.074,2.074,2.075,2.075,0,0,1-2.074-2.074m-7.6,0a2.074,2.074,0,1,1,2.074,2.074,2.075,2.075,0,0,1-2.074-2.074m-7.6,0a2.074,2.074,0,1,1,2.074,2.074,2.075,2.075,0,0,1-2.074-2.074m-7.6,0a2.074,2.074,0,1,1,2.074,2.074,2.075,2.075,0,0,1-2.074-2.074m-7.6,0a2.075,2.075,0,1,1,2.077,2.074,2.076,2.076,0,0,1-2.077-2.074m-7.6,0a2.074,2.074,0,1,1,2.074,2.074A2.074,2.074,0,0,1,12.85,194.3" transform="translate(-5.247 -78.487)" fill="#231f20"/>
    <path id="Trazado_1038" data-name="Trazado 1038" d="M2.074,196.376a2.074,2.074,0,1,1,1.467-3.541,2.075,2.075,0,0,1-1.467,3.541" transform="translate(0 -78.487)" fill="#231f20"/>
    <path id="Trazado_1039" data-name="Trazado 1039" d="M0,113.465a2.074,2.074,0,1,1,2.074,2.074A2.076,2.076,0,0,1,0,113.465m0-7.583a2.074,2.074,0,1,1,2.074,2.074A2.076,2.076,0,0,1,0,105.882M0,98.3a2.074,2.074,0,1,1,2.074,2.076A2.075,2.075,0,0,1,0,98.3m0-7.581a2.074,2.074,0,1,1,2.074,2.074A2.074,2.074,0,0,1,0,90.718m0-7.583a2.074,2.074,0,1,1,2.074,2.073A2.076,2.076,0,0,1,0,83.134M0,75.55a2.074,2.074,0,1,1,2.074,2.074A2.075,2.075,0,0,1,0,75.55m0-7.583a2.074,2.074,0,1,1,2.074,2.075A2.075,2.075,0,0,1,0,67.967m0-7.583a2.074,2.074,0,1,1,2.074,2.074A2.074,2.074,0,0,1,0,60.385M0,52.8a2.074,2.074,0,1,1,2.074,2.074A2.074,2.074,0,0,1,0,52.8m0-7.582A2.074,2.074,0,1,1,2.074,47.3,2.074,2.074,0,0,1,0,45.221m0-7.585A2.074,2.074,0,1,1,2.074,39.71,2.075,2.075,0,0,1,0,37.636m0-7.583a2.074,2.074,0,1,1,2.074,2.074A2.075,2.075,0,0,1,0,30.053m0-7.583a2.074,2.074,0,1,1,2.074,2.074A2.075,2.075,0,0,1,0,22.471m0-7.582a2.074,2.074,0,1,1,2.074,2.074A2.074,2.074,0,0,1,0,14.888" transform="translate(0 -5.232)" fill="#231f20"/>
    <path id="Trazado_1040" data-name="Trazado 1040" d="M2.074,4.149A2.075,2.075,0,0,1,0,2.074,2.074,2.074,0,0,1,3.541.608a2.074,2.074,0,0,1,0,2.934,2.092,2.092,0,0,1-1.467.608" fill="#231f20"/>
    <path id="Trazado_1041" data-name="Trazado 1041" d="M134.494,2.074a2.074,2.074,0,1,1,2.075,2.074,2.073,2.073,0,0,1-2.075-2.074m-7.6,0a2.075,2.075,0,1,1,2.074,2.074,2.074,2.074,0,0,1-2.074-2.074m-7.6,0a2.075,2.075,0,1,1,2.075,2.074,2.074,2.074,0,0,1-2.075-2.074m-7.6,0a2.074,2.074,0,1,1,2.074,2.074,2.074,2.074,0,0,1-2.074-2.074m-7.6,0a2.073,2.073,0,1,1,2.072,2.074,2.072,2.072,0,0,1-2.072-2.074m-7.6,0a2.074,2.074,0,1,1,2.074,2.074,2.072,2.072,0,0,1-2.074-2.074m-7.6,0a2.074,2.074,0,1,1,2.074,2.074,2.074,2.074,0,0,1-2.074-2.074m-7.6,0a2.075,2.075,0,1,1,2.074,2.074,2.074,2.074,0,0,1-2.074-2.074m-7.6,0a2.074,2.074,0,1,1,2.075,2.074,2.074,2.074,0,0,1-2.075-2.074m-7.6,0a2.074,2.074,0,1,1,2.074,2.074,2.074,2.074,0,0,1-2.074-2.074m-7.6,0a2.074,2.074,0,1,1,2.074,2.074,2.073,2.073,0,0,1-2.074-2.074m-7.6,0a2.075,2.075,0,1,1,2.074,2.074,2.072,2.072,0,0,1-2.074-2.074m-7.6,0a2.074,2.074,0,1,1,2.074,2.074,2.074,2.074,0,0,1-2.074-2.074m-7.6,0a2.074,2.074,0,1,1,2.074,2.074,2.074,2.074,0,0,1-2.074-2.074m-7.6,0a2.074,2.074,0,1,1,2.074,2.074,2.074,2.074,0,0,1-2.074-2.074m-7.6,0a2.076,2.076,0,1,1,2.074,2.074,2.074,2.074,0,0,1-2.074-2.074m-7.6,0a2.074,2.074,0,1,1,2.074,2.074A2.072,2.072,0,0,1,12.85,2.074" transform="translate(-5.247)" fill="#231f20"/>
    <path id="Trazado_1042" data-name="Trazado 1042" d="M233.359,4.149a2.072,2.072,0,0,1-2.074-2.074,2.073,2.073,0,1,1,2.074,2.074" transform="translate(-94.434)" fill="#231f20"/>
    <path id="Trazado_1043" data-name="Trazado 1043" d="M231.281,113.465a2.076,2.076,0,1,1,2.077,2.074,2.076,2.076,0,0,1-2.077-2.074m0-7.583a2.076,2.076,0,1,1,2.077,2.074,2.076,2.076,0,0,1-2.077-2.074m0-7.583a2.076,2.076,0,1,1,2.077,2.076,2.076,2.076,0,0,1-2.077-2.076m0-7.584a2.076,2.076,0,1,1,2.077,2.077,2.074,2.074,0,0,1-2.077-2.077m0-7.58a2.076,2.076,0,1,1,2.077,2.074,2.074,2.074,0,0,1-2.077-2.074m0-7.584a2.076,2.076,0,1,1,2.077,2.074,2.076,2.076,0,0,1-2.077-2.074m0-7.583a2.076,2.076,0,1,1,2.077,2.075,2.076,2.076,0,0,1-2.077-2.075m0-7.583a2.076,2.076,0,1,1,2.077,2.074,2.076,2.076,0,0,1-2.077-2.074m0-7.582a2.076,2.076,0,1,1,2.077,2.074,2.076,2.076,0,0,1-2.077-2.074m0-7.582a2.076,2.076,0,1,1,2.077,2.072,2.075,2.075,0,0,1-2.077-2.072m0-7.585a2.076,2.076,0,1,1,2.077,2.074,2.074,2.074,0,0,1-2.077-2.074m0-7.583a2.076,2.076,0,1,1,2.077,2.074,2.076,2.076,0,0,1-2.077-2.074m0-7.583a2.076,2.076,0,1,1,2.077,2.074,2.076,2.076,0,0,1-2.077-2.074m0-7.582a2.076,2.076,0,1,1,2.077,2.074,2.075,2.075,0,0,1-2.077-2.074" transform="translate(-94.432 -5.232)" fill="#231f20"/>
    <rect id="Rect치ngulo_542" data-name="Rect치ngulo 542" width="49.062" height="33.836" transform="translate(13.982 16.704)" fill="#fff"/>
    <path id="Trazado_1044" data-name="Trazado 1044" d="M71.261,62.71H22.2a2.075,2.075,0,0,1-2.075-2.074V26.8A2.074,2.074,0,0,1,22.2,24.725H71.261A2.074,2.074,0,0,1,73.335,26.8V60.636a2.075,2.075,0,0,1-2.074,2.074m-46.988-4.15H69.186V28.873H24.273Z" transform="translate(-8.216 -10.095)" fill="#231f20"/>
    <path id="Trazado_1045" data-name="Trazado 1045" d="M23.629,28.23,48.161,48.259,72.692,28.23Z" transform="translate(-9.648 -11.527)" fill="#fff"/>
    <path id="Trazado_1046" data-name="Trazado 1046" d="M46.729,48.9a2.07,2.07,0,0,1-1.312-.467L20.886,28.407A2.074,2.074,0,0,1,22.2,24.725H71.26a2.074,2.074,0,0,1,1.312,3.682L48.042,48.436a2.072,2.072,0,0,1-1.312.467M28.019,28.874,46.729,44.15l18.71-15.276Z" transform="translate(-8.216 -10.095)" fill="#231f20"/>
    <path id="Trazado_1047" data-name="Trazado 1047" d="M23.629,73.3,41.792,55.751Z" transform="translate(-9.648 -22.763)" fill="#fff"/>
    <path id="Trazado_1048" data-name="Trazado 1048" d="M22.2,73.947a2.075,2.075,0,0,1-1.442-3.566L38.919,52.828A2.074,2.074,0,0,1,41.8,55.811L23.64,73.364a2.068,2.068,0,0,1-1.441.583" transform="translate(-8.217 -21.332)" fill="#231f20"/>
    <path id="Trazado_1049" data-name="Trazado 1049" d="M94.015,73.3,75.852,55.751Z" transform="translate(-30.97 -22.763)" fill="#fff"/>
    <path id="Trazado_1050" data-name="Trazado 1050" d="M92.583,73.947a2.068,2.068,0,0,1-1.441-.583L72.978,55.811a2.074,2.074,0,0,1,2.883-2.983L94.025,70.381a2.075,2.075,0,0,1-1.442,3.566" transform="translate(-29.539 -21.332)" fill="#231f20"/>
    <path id="Trazado_1051" data-name="Trazado 1051" d="M187.316,45.421,158.294,34.292l2.314-8.959,29.022,11.13Z" transform="translate(-64.632 -10.343)" fill="#97e4ff"/>
    <path id="Trazado_1052" data-name="Trazado 1052" d="M185.884,46.065a2.064,2.064,0,0,1-.743-.138L156.119,34.8a2.075,2.075,0,0,1-1.266-2.456l2.314-8.958a2.075,2.075,0,0,1,2.751-1.419l29.022,11.13a2.074,2.074,0,0,1,1.266,2.456l-2.313,8.959a2.075,2.075,0,0,1-2.009,1.556m-26.55-14.478,25.123,9.635,1.269-4.916L160.6,26.671Z" transform="translate(-63.2 -8.912)" fill="#231f20"/>
    <path id="Trazado_1053" data-name="Trazado 1053" d="M205.876,44.142l-7.791,30.172Z" transform="translate(-80.878 -18.023)" fill="#97e4ff"/>
    <path id="Trazado_1054" data-name="Trazado 1054" d="M196.654,74.958a2.076,2.076,0,0,1-2.01-2.593l7.791-30.172a2.074,2.074,0,1,1,4.017,1.037L198.661,73.4a2.075,2.075,0,0,1-2.007,1.556" transform="translate(-79.446 -16.591)" fill="#231f20"/>
    <path id="Trazado_1055" data-name="Trazado 1055" d="M156.827,25.333l-7.791,30.172Z" transform="translate(-60.852 -10.343)" fill="#97e4ff"/>
    <path id="Trazado_1056" data-name="Trazado 1056" d="M147.606,56.148a2.076,2.076,0,0,1-2.01-2.594l7.791-30.172A2.075,2.075,0,1,1,157.4,24.42l-7.791,30.172a2.075,2.075,0,0,1-2.007,1.557" transform="translate(-59.42 -8.911)" fill="#231f20"/>
    <path id="Trazado_1057" data-name="Trazado 1057" d="M134.264,70.216A4.483,4.483,0,1,0,139.726,67a4.484,4.484,0,0,0-5.462,3.22" transform="translate(-54.762 -27.296)" fill="#97e4ff"/>
    <path id="Trazado_1058" data-name="Trazado 1058" d="M137.185,76.466a6.56,6.56,0,1,1,6.338-4.921,6.565,6.565,0,0,1-6.338,4.921M134.842,69.3a2.409,2.409,0,1,0,2.935-1.73,2.412,2.412,0,0,0-2.935,1.73" transform="translate(-53.33 -25.865)" fill="#231f20"/>
    <path id="Trazado_1059" data-name="Trazado 1059" d="M183.312,89.026a4.484,4.484,0,1,0,5.463-3.22,4.483,4.483,0,0,0-5.463,3.22" transform="translate(-74.788 -34.976)" fill="#97e4ff"/>
    <path id="Trazado_1060" data-name="Trazado 1060" d="M186.233,95.276a6.56,6.56,0,1,1,6.338-4.921,6.565,6.565,0,0,1-6.338,4.921m-2.344-7.163A2.409,2.409,0,1,0,185,86.64a2.392,2.392,0,0,0-1.109,1.473" transform="translate(-73.357 -33.544)" fill="#231f20"/>
    <path id="Trazado_1061" data-name="Trazado 1061" d="M165.556,133.962H131.568a12.968,12.968,0,1,0,12.38,16.839h9.228a12.969,12.969,0,1,0,12.38-16.839" transform="translate(-48.425 -54.697)" fill="#fff"/>
    <path id="Trazado_1062" data-name="Trazado 1062" d="M164.126,160.541a14.97,14.97,0,0,1-13.824-9.1H143.96a15.045,15.045,0,1,1-13.823-20.988h33.988a15.042,15.042,0,0,1,0,30.085M142.517,147.3h9.228a2.075,2.075,0,0,1,1.98,1.456,10.895,10.895,0,1,0,10.4-14.146H130.137a10.893,10.893,0,1,0,10.4,14.146,2.074,2.074,0,0,1,1.98-1.456" transform="translate(-46.993 -53.265)" fill="#231f20"/>
    <path id="Trazado_1063" data-name="Trazado 1063" d="M141.7,147.594v0Z" transform="translate(-57.856 -60.263)" fill="#fff"/>
    <path id="Trazado_1064" data-name="Trazado 1064" d="M140.268,157.206a2.075,2.075,0,0,1-2.074-2.074v-8.969a2.074,2.074,0,0,1,4.149,0v8.969a2.074,2.074,0,0,1-2.074,2.074" transform="translate(-56.425 -58.831)" fill="#231f20"/>
    <path id="Trazado_1065" data-name="Trazado 1065" d="M143.09,155.174h0Z" transform="translate(-54.761 -63.358)" fill="#fff"/>
    <path id="Trazado_1066" data-name="Trazado 1066" d="M141.658,155.816h-8.97a2.074,2.074,0,0,1,0-4.149h8.97a2.074,2.074,0,0,1,0,4.149" transform="translate(-53.33 -61.926)" fill="#231f20"/>
    <path id="Trazado_1067" data-name="Trazado 1067" d="M198.87,146.494a1.751,1.751,0,1,1-1.751-1.751,1.751,1.751,0,0,1,1.751,1.751" transform="translate(-79.769 -59.099)" fill="#231f20"/>
    <path id="Trazado_1068" data-name="Trazado 1068" d="M198.87,160.47a1.751,1.751,0,1,1-1.751-1.751,1.751,1.751,0,0,1,1.751,1.751" transform="translate(-79.769 -64.805)" fill="#231f20"/>
    <path id="Trazado_1069" data-name="Trazado 1069" d="M204.107,155.232a1.751,1.751,0,1,1,1.751-1.751,1.751,1.751,0,0,1-1.751,1.751" transform="translate(-82.622 -61.952)" fill="#231f20"/>
    <path id="Trazado_1070" data-name="Trazado 1070" d="M190.131,155.232a1.751,1.751,0,1,1,1.751-1.751,1.751,1.751,0,0,1-1.751,1.751" transform="translate(-76.916 -61.952)" fill="#231f20"/>
    <path id="Trazado_1071" data-name="Trazado 1071" d="M51.976,111.356l3.954,12.171a1.476,1.476,0,0,0,1.4,1.02h12.8a1.476,1.476,0,0,1,.867,2.67l-10.353,7.522a1.476,1.476,0,0,0-.536,1.65l3.954,12.171a1.476,1.476,0,0,1-2.271,1.65L51.44,142.687a1.476,1.476,0,0,0-1.735,0l-10.353,7.522a1.476,1.476,0,0,1-2.271-1.65l3.954-12.171a1.476,1.476,0,0,0-.536-1.65l-10.353-7.522a1.476,1.476,0,0,1,.867-2.67h12.8a1.476,1.476,0,0,0,1.4-1.02l3.954-12.171a1.476,1.476,0,0,1,2.807,0" transform="translate(-12.059 -45.051)" fill="#97e4ff"/>
    <path id="Trazado_1072" data-name="Trazado 1072" d="M37.053,151.136a3.554,3.554,0,0,1-3.376-4.65l3.82-11.757-10-7.267a3.55,3.55,0,0,1,2.088-6.422H41.945l3.82-11.757a3.55,3.55,0,0,1,6.753,0l3.82,11.757H68.7a3.55,3.55,0,0,1,2.087,6.422l-10,7.267,3.82,11.757a3.55,3.55,0,0,1-5.464,3.969l-10-7.266-10,7.266a3.547,3.547,0,0,1-2.087.68M49.141,138.9a3.543,3.543,0,0,1,2.087.68l8.862,6.438L56.7,135.6a3.543,3.543,0,0,1,1.29-3.97l8.862-6.438H55.9a3.542,3.542,0,0,1-3.377-2.453l-3.385-10.418-3.385,10.418a3.54,3.54,0,0,1-3.376,2.453H31.425l8.862,6.439a3.541,3.541,0,0,1,1.29,3.969l-3.385,10.418,8.862-6.438a3.547,3.547,0,0,1,2.087-.68" transform="translate(-10.628 -43.619)" fill="#231f20"/>
  </g>
</svg>
