<svg id="Grupo_1169" data-name="Grupo 1169" xmlns="http://www.w3.org/2000/svg" xmlns:xlink="http://www.w3.org/1999/xlink" width="139.711" height="131.238" viewBox="0 0 139.711 131.238">
  <defs>
    <clipPath id="clip-path">
      <rect id="Rectángulo_544" data-name="Rectángulo 544" width="139.711" height="131.238" fill="none"/>
    </clipPath>
  </defs>
  <g id="Grupo_1168" data-name="Grupo 1168" clip-path="url(#clip-path)">
    <path id="Trazado_1073" data-name="Trazado 1073" d="M39.741,53.548A17.559,17.559,0,1,1,22.181,35.989,17.559,17.559,0,0,1,39.741,53.548" transform="translate(-2.016 -15.695)" fill="#fff"/>
    <path id="Trazado_1074" data-name="Trazado 1074" d="M20.484,71.605A19.755,19.755,0,1,1,40.239,51.85,19.777,19.777,0,0,1,20.484,71.605m0-35.119A15.364,15.364,0,1,0,35.848,51.85,15.381,15.381,0,0,0,20.484,36.487" transform="translate(-0.318 -13.997)" fill="#231f20"/>
    <path id="Trazado_1075" data-name="Trazado 1075" d="M39.834,121.9H3.894v-5.292a17.97,17.97,0,0,1,35.94,0Z" transform="translate(-1.698 -43.015)" fill="#fff"/>
    <path id="Trazado_1076" data-name="Trazado 1076" d="M38.136,122.4H2.2A2.2,2.2,0,0,1,0,120.2v-5.292a20.166,20.166,0,0,1,40.332,0V120.2a2.2,2.2,0,0,1-2.2,2.2M4.392,118H35.941v-3.1a15.775,15.775,0,0,0-31.549,0Z" transform="translate(0 -41.317)" fill="#231f20"/>
    <path id="Trazado_1077" data-name="Trazado 1077" d="M101.224,26.878A22.984,22.984,0,1,1,78.241,3.894a22.983,22.983,0,0,1,22.983,22.984" transform="translate(-24.097 -1.698)" fill="#97e4ff"/>
    <path id="Trazado_1078" data-name="Trazado 1078" d="M76.543,50.359A25.18,25.18,0,1,1,101.723,25.18,25.208,25.208,0,0,1,76.543,50.359m0-45.968A20.788,20.788,0,1,0,97.331,25.18,20.811,20.811,0,0,0,76.543,4.392" transform="translate(-22.4)" fill="#231f20"/>
    <path id="Trazado_1079" data-name="Trazado 1079" d="M101.346,116.341H54.3v-6.926a23.521,23.521,0,1,1,47.042,0Z" transform="translate(-23.682 -37.458)" fill="#97e4ff"/>
    <path id="Trazado_1080" data-name="Trazado 1080" d="M99.649,116.839H52.606a2.2,2.2,0,0,1-2.2-2.2v-6.927a25.717,25.717,0,0,1,51.434,0v6.927a2.2,2.2,0,0,1-2.2,2.2M54.8,112.447H97.453v-4.731a21.326,21.326,0,0,0-42.651,0Z" transform="translate(-21.984 -35.76)" fill="#231f20"/>
    <path id="Trazado_1081" data-name="Trazado 1081" d="M102.447,101.91A26.269,26.269,0,1,0,139.5,99.29a26.269,26.269,0,0,0-37.057,2.619m33.29,28.894a17.812,17.812,0,1,1-1.776-25.127,17.812,17.812,0,0,1,1.776,25.127" transform="translate(-41.872 -40.496)" fill="#fff"/>
    <path id="Trazado_1082" data-name="Trazado 1082" d="M120.554,145.9a28.5,28.5,0,1,1,2.05-.072q-1.029.073-2.05.072m.079-52.541q-.864,0-1.733.061a24.074,24.074,0,0,0,1.661,48.088q.864,0,1.733-.061a24.074,24.074,0,0,0-1.661-48.089m-.066,44.084a20.037,20.037,0,1,1,1.441-.051q-.723.051-1.441.051m.041-35.618a15.609,15.609,0,1,0,10.226,3.816,15.583,15.583,0,0,0-10.226-3.816" transform="translate(-40.184 -38.797)" fill="#231f20"/>
    <path id="Trazado_1083" data-name="Trazado 1083" d="M180.086,171.981l15.278,13.261Z" transform="translate(-78.535 -75)" fill="#fff"/>
    <path id="Trazado_1084" data-name="Trazado 1084" d="M193.665,185.738a2.189,2.189,0,0,1-1.439-.537L176.949,171.94a2.2,2.2,0,0,1,2.879-3.316l15.278,13.261a2.2,2.2,0,0,1-1.44,3.854" transform="translate(-76.837 -73.302)" fill="#231f20"/>
    <path id="Trazado_1085" data-name="Trazado 1085" d="M221.964,208.24h0a4.729,4.729,0,0,1-6.67.472l-17.369-15.076a4.729,4.729,0,1,1,6.2-7.142l17.369,15.076a4.728,4.728,0,0,1,.471,6.67" transform="translate(-85.604 -80.825)" fill="#fff"/>
    <path id="Trazado_1086" data-name="Trazado 1086" d="M216.693,210.367a6.9,6.9,0,0,1-4.534-1.692L194.79,193.6a6.925,6.925,0,0,1,9.078-10.459l17.369,15.076a6.921,6.921,0,0,1-4.543,12.15M199.33,185.838a2.532,2.532,0,0,0-1.662,4.445l17.369,15.076a2.533,2.533,0,0,0,3.321-3.826l-17.369-15.075a2.523,2.523,0,0,0-1.659-.619" transform="translate(-83.908 -79.129)" fill="#231f20"/>
    <path id="Trazado_1087" data-name="Trazado 1087" d="M193.632,35.989v0Z" transform="translate(-84.442 -15.695)" fill="#fff"/>
    <path id="Trazado_1088" data-name="Trazado 1088" d="M191.934,62.806a2.2,2.2,0,0,1-2.2-2.2V34.291a2.2,2.2,0,0,1,4.392,0V60.61a2.2,2.2,0,0,1-2.2,2.2" transform="translate(-82.744 -13.997)" fill="#231f20"/>
    <path id="Trazado_1089" data-name="Trazado 1089" d="M196.614,59.325h0Z" transform="translate(-74.266 -25.871)" fill="#fff"/>
    <path id="Trazado_1090" data-name="Trazado 1090" d="M194.917,59.823H168.6a2.2,2.2,0,1,1,0-4.392h26.318a2.2,2.2,0,1,1,0,4.392" transform="translate(-72.568 -24.173)" fill="#231f20"/>
    <path id="Trazado_1091" data-name="Trazado 1091" d="M47.474,168.776v0Z" transform="translate(-20.703 -73.603)" fill="#fff"/>
    <path id="Trazado_1092" data-name="Trazado 1092" d="M45.776,188.732a2.2,2.2,0,0,1-2.2-2.2V167.078a2.2,2.2,0,1,1,4.391,0v19.459a2.2,2.2,0,0,1-2.2,2.2" transform="translate(-19.006 -71.905)" fill="#231f20"/>
    <path id="Trazado_1093" data-name="Trazado 1093" d="M49.68,186.03h0Z" transform="translate(-13.179 -81.127)" fill="#fff"/>
    <path id="Trazado_1094" data-name="Trazado 1094" d="M47.981,186.527H28.523a2.2,2.2,0,1,1,0-4.392H47.981a2.2,2.2,0,1,1,0,4.392" transform="translate(-11.481 -79.429)" fill="#231f20"/>
  </g>
</svg>
