<svg xmlns="http://www.w3.org/2000/svg" xmlns:xlink="http://www.w3.org/1999/xlink" width="124.486" height="46.646" viewBox="0 0 124.486 46.646">
  <defs>
    <clipPath id="clip-path">
      <rect id="Rectángulo_1" data-name="Rectángulo 1" width="124.486" height="46.646" fill="none"/>
    </clipPath>
  </defs>
  <g id="LOGO-TINA" transform="translate(0 0)">
    <g id="Grupo_1" data-name="Grupo 1" transform="translate(0 0)" clip-path="url(#clip-path)">
      <path id="Trazado_1" data-name="Trazado 1" d="M18.272,30.988a3.738,3.738,0,1,0,3.738,3.738,3.738,3.738,0,0,0-3.738-3.738" transform="translate(-7.112 -15.164)" fill="#4e1480"/>
      <path id="Trazado_2" data-name="Trazado 2" d="M39.821,36.008a3.738,3.738,0,1,0,3.738,3.738,3.738,3.738,0,0,0-3.738-3.738" transform="translate(-17.657 -17.62)" fill="#eeb701"/>
      <path id="Trazado_3" data-name="Trazado 3" d="M61.37,37.762a3.738,3.738,0,1,0-3.738-3.738,3.738,3.738,0,0,0,3.738,3.738" transform="translate(-28.202 -14.82)" fill="#8e80e2"/>
      <path id="Trazado_4" data-name="Trazado 4" d="M16.583,50.55h0a5.5,5.5,0,0,0-5.5,5.5V60.5a20.585,20.585,0,0,0,11,7.552V56.051a5.5,5.5,0,0,0-5.5-5.5" transform="translate(-5.423 -24.736)" fill="#4e1480"/>
      <path id="Trazado_5" data-name="Trazado 5" d="M38.132,55.687a5.5,5.5,0,0,0-5.5,5.5v9.365a20.679,20.679,0,0,0,11,0V61.188a5.5,5.5,0,0,0-5.5-5.5" transform="translate(-15.968 -27.25)" fill="#eeb701"/>
      <path id="Trazado_6" data-name="Trazado 6" d="M65.181,60.16V55.349a5.5,5.5,0,0,0-11,0V67.712a20.586,20.586,0,0,0,11-7.552" transform="translate(-26.512 -24.393)" fill="#8e80e2"/>
      <path id="Trazado_7" data-name="Trazado 7" d="M63.4,70.084l5.266-4.6,1.352,6.862,1.01,5.125A1.021,1.021,0,0,1,69.7,78.633l-4.944-1.688-6.618-2.26Z" transform="translate(-28.448 -32.043)" fill="#8e80e2"/>
      <path id="Trazado_8" data-name="Trazado 8" d="M22.024,2.7a19.326,19.326,0,1,1-5.171,37.95l-.123-.034A19.432,19.432,0,0,1,6.51,33.548,19.325,19.325,0,0,1,22.024,2.7m0-2.7A22.027,22.027,0,0,0,16.13,43.249h0A22.026,22.026,0,1,0,22.024,0" transform="translate(0 0)" fill="#8e80e2"/>
      <path id="Trazado_9" data-name="Trazado 9" d="M97.026,20.845h14.926a2.2,2.2,0,0,1,0,4.392H106.97V43.413a2.5,2.5,0,0,1-5,0V25.237H97.026a2.2,2.2,0,1,1,0-4.392" transform="translate(-46.404 -10.2)" fill="#8e80e2"/>
      <path id="Trazado_10" data-name="Trazado 10" d="M138.534,18.6a3.04,3.04,0,0,1,3.244-3.064,3.1,3.1,0,0,1,2.862,3.031,3.053,3.053,0,1,1-6.106.033m3.035,4.821h0a2.5,2.5,0,0,1,2.5,2.5V40.813a2.5,2.5,0,0,1-5,0V25.922a2.5,2.5,0,0,1,2.5-2.5" transform="translate(-67.791 -7.6)" fill="#8e80e2"/>
      <path id="Trazado_11" data-name="Trazado 11" d="M162.5,30.643h0a2.5,2.5,0,0,1,2.5,2.5v.428a6.54,6.54,0,0,1,5.928-3.285c4.178,0,7.392,3.071,7.392,8.5v9.248a2.5,2.5,0,0,1-5,0V39.5c0-3.142-1.607-4.856-4.142-4.856S165,36.357,165,39.5v8.535a2.5,2.5,0,1,1-5,0V33.143a2.5,2.5,0,0,1,2.5-2.5" transform="translate(-78.296 -14.82)" fill="#8e80e2"/>
      <path id="Trazado_12" data-name="Trazado 12" d="M221.84,30.643h0a2.5,2.5,0,0,1,2.5,2.5V48.034a2.5,2.5,0,1,1-5,0V47.57a6.893,6.893,0,0,1-6.071,3.321c-5.392,0-9.213-4.214-9.213-10.285,0-6.035,3.75-10.32,9.249-10.32A6.7,6.7,0,0,1,219.34,33.5v-.357a2.5,2.5,0,0,1,2.5-2.5M214.3,46.606c3.178,0,5.107-2.607,5.107-6,0-3.428-1.928-6.035-5.142-6.035-3.178,0-5.035,2.535-5.035,6.035,0,3.464,1.892,6,5.071,6" transform="translate(-99.854 -14.82)" fill="#8e80e2"/>
      <path id="Trazado_13" data-name="Trazado 13" d="M107.57,73.116a1.167,1.167,0,0,1,1.221,1.016h-.721a.515.515,0,0,0-.525-.439c-.363,0-.62.31-.62.806s.262.792.62.792a.526.526,0,0,0,.525-.439h.721a1.2,1.2,0,0,1-1.245,1.016,1.378,1.378,0,0,1,.024-2.753" transform="translate(-51.985 -35.779)" fill="#4e1480"/>
      <path id="Trazado_14" data-name="Trazado 14" d="M114.531,74.49a1.384,1.384,0,1,1-1.369-1.374,1.325,1.325,0,0,1,1.369,1.374m-2.075,0a.7.7,0,1,0,.7-.8.713.713,0,0,0-.7.8" transform="translate(-54.691 -35.779)" fill="#4e1480"/>
      <path id="Trazado_15" data-name="Trazado 15" d="M118.088,73.163h.668v.391a.874.874,0,0,1,.792-.439,1,1,0,0,1,.988,1.135v1.57h-.668V74.347c0-.42-.214-.649-.554-.649s-.558.229-.558.649v1.474h-.668Z" transform="translate(-57.786 -35.779)" fill="#4e1480"/>
      <path id="Trazado_16" data-name="Trazado 16" d="M125.662,74.9h.706a1.208,1.208,0,0,1-1.255.973,1.377,1.377,0,0,1,.024-2.753,1.225,1.225,0,0,1,1.264,1.312,1.468,1.468,0,0,1-.019.243h-1.908a.656.656,0,0,0,.639.634.511.511,0,0,0,.549-.41m-1.179-.654h1.236a.6.6,0,0,0-.606-.563.637.637,0,0,0-.63.563" transform="translate(-60.574 -35.779)" fill="#4e1480"/>
      <path id="Trazado_17" data-name="Trazado 17" d="M130.811,73.116a1.167,1.167,0,0,1,1.221,1.016h-.721a.514.514,0,0,0-.524-.439c-.363,0-.62.31-.62.806s.262.792.62.792a.525.525,0,0,0,.524-.439h.721a1.2,1.2,0,0,1-1.245,1.016,1.378,1.378,0,0,1,.023-2.753" transform="translate(-63.358 -35.779)" fill="#4e1480"/>
      <path id="Trazado_18" data-name="Trazado 18" d="M135.133,73.127h-.315v-.544h.315V71.93h.673v.654h.6v.544h-.6v1.279c0,.21.072.305.277.305a.674.674,0,0,0,.325-.1v.558a.989.989,0,0,1-.492.114.7.7,0,0,1-.782-.8Z" transform="translate(-65.972 -35.198)" fill="#4e1480"/>
      <path id="Trazado_19" data-name="Trazado 19" d="M140.364,73.164h.668v2.657h-.668v-.4a.92.92,0,0,1-.811.444,1.385,1.385,0,0,1,0-2.752.9.9,0,0,1,.806.429Zm-.673,2.132a.814.814,0,0,0-.005-1.608c-.424,0-.673.339-.673.806s.253.8.678.8" transform="translate(-67.687 -35.779)" fill="#4e1480"/>
      <path id="Trazado_20" data-name="Trazado 20" d="M146.243,77.38a.384.384,0,1,1,.381.387.381.381,0,0,1-.381-.387" transform="translate(-71.563 -37.676)" fill="#4e1480"/>
      <path id="Trazado_21" data-name="Trazado 21" d="M151.371,73.116a1.167,1.167,0,0,1,1.221,1.016h-.721a.515.515,0,0,0-.525-.439c-.362,0-.62.31-.62.806s.262.792.62.792a.525.525,0,0,0,.525-.439h.721a1.2,1.2,0,0,1-1.245,1.016,1.378,1.378,0,0,1,.024-2.753" transform="translate(-73.419 -35.779)" fill="#4e1480"/>
      <path id="Trazado_22" data-name="Trazado 22" d="M158.332,74.49a1.384,1.384,0,1,1-1.369-1.374,1.325,1.325,0,0,1,1.369,1.374m-2.075,0a.7.7,0,1,0,.7-.8.713.713,0,0,0-.7.8" transform="translate(-76.125 -35.779)" fill="#4e1480"/>
      <path id="Trazado_23" data-name="Trazado 23" d="M161.889,73.163h.668v.391a.851.851,0,0,1,.768-.439.9.9,0,0,1,.845.539.894.894,0,0,1,.864-.539,1,1,0,0,1,.992,1.135v1.57h-.668V74.347c0-.42-.21-.649-.534-.649s-.535.229-.535.649v1.474h-.668V74.347c0-.42-.2-.649-.529-.649s-.535.229-.535.649v1.474h-.668Z" transform="translate(-79.219 -35.779)" fill="#4e1480"/>
      <path id="Trazado_24" data-name="Trazado 24" d="M171.89,76.9h-.668V73.163h.668v.4a.912.912,0,0,1,.816-.444,1.385,1.385,0,0,1-.01,2.753.9.9,0,0,1-.806-.429Zm.673-3.211a.814.814,0,0,0,0,1.608c.425-.005.673-.339.673-.806s-.253-.8-.678-.8" transform="translate(-83.787 -35.779)" fill="#4e1480"/>
      <path id="Trazado_25" data-name="Trazado 25" d="M179.149,73.164h.668v2.657h-.668v-.4a.919.919,0,0,1-.811.444,1.385,1.385,0,0,1,.005-2.752.9.9,0,0,1,.806.429Zm-.673,2.132a.814.814,0,0,0,0-1.608c-.425,0-.673.339-.673.806s.253.8.678.8" transform="translate(-86.666 -35.779)" fill="#4e1480"/>
      <path id="Trazado_26" data-name="Trazado 26" d="M184.313,75.821h-.668V73.163h.668v.405a.7.7,0,0,1,.606-.453.316.316,0,0,1,.219.066V73.9a.594.594,0,0,0-.3-.086c-.3,0-.52.181-.52.668Z" transform="translate(-89.866 -35.779)" fill="#4e1480"/>
      <path id="Trazado_27" data-name="Trazado 27" d="M187.21,73.127H186.9v-.544h.315V71.93h.673v.654h.6v.544h-.6v1.279c0,.21.072.305.277.305a.674.674,0,0,0,.325-.1v.558a.989.989,0,0,1-.492.114.7.7,0,0,1-.782-.8Z" transform="translate(-91.456 -35.198)" fill="#4e1480"/>
      <path id="Trazado_28" data-name="Trazado 28" d="M192.274,74.9h.706a1.207,1.207,0,0,1-1.255.973,1.377,1.377,0,0,1,.024-2.753,1.225,1.225,0,0,1,1.264,1.312,1.417,1.417,0,0,1-.019.243h-1.908a.656.656,0,0,0,.639.634.511.511,0,0,0,.549-.41m-1.179-.654h1.236a.6.6,0,0,0-.606-.563.637.637,0,0,0-.63.563" transform="translate(-93.171 -35.779)" fill="#4e1480"/>
      <path id="Trazado_29" data-name="Trazado 29" d="M197.8,77.38a.384.384,0,1,1,.381.387.381.381,0,0,1-.381-.387" transform="translate(-96.791 -37.676)" fill="#4e1480"/>
      <path id="Trazado_30" data-name="Trazado 30" d="M202.585,76.9h-.668V73.163h.668v.4a.912.912,0,0,1,.816-.444,1.385,1.385,0,0,1-.01,2.753.9.9,0,0,1-.806-.429Zm.673-3.211a.814.814,0,0,0,0,1.608c.425-.005.673-.339.673-.806s-.253-.8-.678-.8" transform="translate(-98.807 -35.779)" fill="#4e1480"/>
      <path id="Trazado_31" data-name="Trazado 31" d="M208.8,75.821h-.668V73.163h.668v.405a.7.7,0,0,1,.606-.453.316.316,0,0,1,.219.066V73.9a.6.6,0,0,0-.305-.086c-.3,0-.52.181-.52.668Z" transform="translate(-101.846 -35.779)" fill="#4e1480"/>
      <path id="Trazado_32" data-name="Trazado 32" d="M214.155,74.49a1.384,1.384,0,1,1-1.369-1.374,1.325,1.325,0,0,1,1.369,1.374m-2.075,0a.7.7,0,1,0,.7-.8.713.713,0,0,0-.7.8" transform="translate(-103.442 -35.779)" fill="#4e1480"/>
      <path id="Trazado_33" data-name="Trazado 33" d="M219.591,75.034c0,.5-.405.835-1.059.835a1.061,1.061,0,0,1-1.173-.969h.677a.466.466,0,0,0,.511.439c.229,0,.377-.1.377-.253,0-.539-1.512-.158-1.512-1.169,0-.429.363-.8,1.011-.8a1.012,1.012,0,0,1,1.1.964h-.654a.453.453,0,0,0-.448-.434c-.229,0-.344.1-.344.238,0,.511,1.513.134,1.513,1.15" transform="translate(-106.363 -35.779)" fill="#4e1480"/>
      <path id="Trazado_34" data-name="Trazado 34" d="M223.275,76.9h-.668V73.163h.668v.4a.912.912,0,0,1,.816-.444,1.385,1.385,0,0,1-.01,2.753.9.9,0,0,1-.806-.429Zm.673-3.211a.814.814,0,0,0,0,1.608c.425-.005.673-.339.673-.806s-.253-.8-.678-.8" transform="translate(-108.931 -35.779)" fill="#4e1480"/>
      <path id="Trazado_35" data-name="Trazado 35" d="M230.367,74.9h.706a1.207,1.207,0,0,1-1.254.973,1.377,1.377,0,0,1,.023-2.753,1.225,1.225,0,0,1,1.264,1.312,1.468,1.468,0,0,1-.019.243h-1.909a.656.656,0,0,0,.64.634.51.51,0,0,0,.548-.41m-1.179-.654h1.236a.6.6,0,0,0-.606-.563.637.637,0,0,0-.63.563" transform="translate(-111.811 -35.779)" fill="#4e1480"/>
      <path id="Trazado_36" data-name="Trazado 36" d="M235.176,75.821h-.668V73.163h.668v.405a.7.7,0,0,1,.606-.453.317.317,0,0,1,.219.066V73.9a.6.6,0,0,0-.305-.086c-.3,0-.52.181-.52.668Z" transform="translate(-114.755 -35.779)" fill="#4e1480"/>
      <path id="Trazado_37" data-name="Trazado 37" d="M239.809,73.164h.668v2.657h-.668v-.4a.92.92,0,0,1-.811.444,1.384,1.384,0,0,1,0-2.752.9.9,0,0,1,.806.429Zm-.673,2.132a.814.814,0,0,0-.005-1.608c-.424,0-.673.339-.673.806s.253.8.678.8" transform="translate(-116.35 -35.779)" fill="#4e1480"/>
    </g>
  </g>
</svg>
