<svg xmlns="http://www.w3.org/2000/svg" xmlns:xlink="http://www.w3.org/1999/xlink" width="76.462" height="66.95" viewBox="0 0 76.462 66.95">
  <defs>
    <clipPath id="clip-path">
      <rect id="Rectángulo_674" data-name="Rectángulo 674" width="65.274" height="51.822" fill="none"/>
    </clipPath>
  </defs>
  <g id="Grupo_1191" data-name="Grupo 1191" transform="matrix(0.966, 0.259, -0.259, 0.966, 13.413, 0)">
    <g id="Grupo_1190" data-name="Grupo 1190" transform="translate(0 0)" clip-path="url(#clip-path)">
      <path id="Trazado_1140" data-name="Trazado 1140" d="M44.6,12.718a4.443,4.443,0,0,0-1.4,2.8A4.547,4.547,0,0,0,37.74,16a4.443,4.443,0,0,0-1.4,2.8,4.547,4.547,0,0,0-5.455.482A4.448,4.448,0,0,0,29.5,21.933L22.166,14.6a4.563,4.563,0,0,0-6.283-.174,4.483,4.483,0,0,0-.117,6.452L30.808,35.923a4.484,4.484,0,0,0-2.375,8.455s8.505,4.4,11.851,6.122c.5.257,1,.532,1.492.8l.565.307a16.269,16.269,0,0,0,9.891,1.782,15.99,15.99,0,0,0,9.181-4.57l1.289-1.29a16.151,16.151,0,0,0,0-22.815L50.882,12.892a4.564,4.564,0,0,0-6.283-.174" transform="translate(-2.146 -1.715)" fill="#fff"/>
      <path id="Trazado_1141" data-name="Trazado 1141" d="M44.6,12.717a4.444,4.444,0,0,0-1.405,2.8A4.547,4.547,0,0,0,37.741,16a4.442,4.442,0,0,0-1.405,2.8,4.547,4.547,0,0,0-5.455.482A4.448,4.448,0,0,0,29.5,21.932L22.167,14.6a4.564,4.564,0,0,0-6.283-.174,4.482,4.482,0,0,0-.118,6.452L30.809,35.923a4.484,4.484,0,0,0-2.376,8.456s8.505,4.4,11.851,6.121c.5.257,1,.532,1.492.8l.565.307a16.262,16.262,0,0,0,9.891,1.781,15.985,15.985,0,0,0,9.18-4.57l1.29-1.29a16.151,16.151,0,0,0,0-22.815L50.883,12.891a4.565,4.565,0,0,0-6.283-.174M61.434,25.978a14.357,14.357,0,0,1,0,20.28l-1.29,1.289a14.422,14.422,0,0,1-16.951,2.479l-.56-.3c-.5-.271-1.011-.55-1.527-.817-3.346-1.725-11.85-6.121-11.85-6.121a2.691,2.691,0,0,1-.668-4.289,2.694,2.694,0,0,1,3.139-.489l2.527,1.306a.9.9,0,0,0,1.125-.253l.022-.03a.9.9,0,0,0-.1-1.15L17.035,19.614a2.688,2.688,0,0,1,.072-3.872,2.756,2.756,0,0,1,3.793.129l9.865,9.865,6.1,6.1a.9.9,0,0,0,1.267-1.268l-6.1-6.1A2.689,2.689,0,0,1,32.1,20.6a2.757,2.757,0,0,1,3.794.129l1.727,1.727L43.2,28.026a.9.9,0,0,0,1.268-1.268l-5.573-5.573a2.688,2.688,0,0,1,.072-3.872,2.756,2.756,0,0,1,3.793.129l1.727,1.727,4.7,4.7A.9.9,0,0,0,50.446,22.6l-4.7-4.7a2.688,2.688,0,0,1,.072-3.872,2.756,2.756,0,0,1,3.793.129Z" transform="translate(-2.146 -1.714)"/>
      <path id="Trazado_1142" data-name="Trazado 1142" d="M10,10.781a.939.939,0,0,1-.666-.276L5.693,6.864A.942.942,0,1,1,7.025,5.532l3.64,3.641A.942.942,0,0,1,10,10.781" transform="translate(-0.804 -0.78)" fill="#fff"/>
      <path id="Trazado_1143" data-name="Trazado 1143" d="M6.091,19.991H.942a.942.942,0,1,1,0-1.884H6.091a.942.942,0,1,1,0,1.884" transform="translate(0 -2.688)" fill="#fff"/>
      <path id="Trazado_1144" data-name="Trazado 1144" d="M6.2,32.273a.942.942,0,0,1-.666-1.608l3.64-3.64a.942.942,0,1,1,1.332,1.332L6.865,32a.939.939,0,0,1-.666.276" transform="translate(-0.78 -3.971)" fill="#fff"/>
      <path id="Trazado_1145" data-name="Trazado 1145" d="M19.049,37.427a.942.942,0,0,1-.942-.942V31.337a.942.942,0,0,1,1.884,0v5.148a.942.942,0,0,1-.942.942" transform="translate(-2.688 -4.512)" fill="#fff"/>
      <path id="Trazado_1146" data-name="Trazado 1146" d="M27.851,10.941a.942.942,0,0,1-.666-1.608l3.64-3.641a.942.942,0,0,1,1.332,1.332l-3.64,3.641a.939.939,0,0,1-.666.276" transform="translate(-3.995 -0.804)" fill="#fff"/>
      <path id="Trazado_1147" data-name="Trazado 1147" d="M19.276,7.033a.942.942,0,0,1-.942-.942V.942a.942.942,0,1,1,1.884,0V6.091a.942.942,0,0,1-.942.942" transform="translate(-2.722 0)" fill="#fff"/>
    </g>
  </g>
</svg>
